<svg xmlns="http://www.w3.org/2000/svg" viewBox="0 0 503.873 503.873"><path d="M134.095 104.219c8.127-9.752 13.003-21.943 13.003-34.946 0-29.257-24.381-53.638-53.638-53.638S39.822 40.016 39.822 69.273c0 13.003 4.876 25.194 13.003 34.946C17.879 118.847 0 144.041 0 177.362c0 14.629 3.251 24.381 10.565 30.883 12.19 10.565 38.197 5.689 47.136 4.064 10.565-1.625 22.756-3.251 35.759-3.251s25.194 1.625 35.759 3.251c19.505 3.251 35.759 5.689 47.137-4.063 7.314-5.689 10.565-16.254 10.565-30.883 0-33.322-17.88-58.516-52.826-73.144zM93.46 32.701c20.317 0 37.384 17.067 37.384 37.384S113.778 107.47 93.46 107.47 56.076 90.403 56.076 70.086 73.143 32.701 93.46 32.701zm72.331 163.353c-5.689 4.876-18.692 2.438-34.133 0-11.378-1.625-24.381-4.063-38.197-4.063-13.816 0-26.819 1.625-38.197 4.063-15.441 3.251-28.444 4.876-34.133 0-3.251-2.438-4.876-8.94-4.876-17.879 0-30.07 17.067-49.575 51.2-60.952 7.314 4.064 16.254 6.502 26.006 6.502s18.692-2.438 26.006-6.502c34.133 11.378 51.2 31.695 51.2 60.952 0 8.939-1.626 15.441-4.876 17.879zm285.257-91.022c8.127-9.752 13.003-21.943 13.003-34.946 0-29.257-24.381-53.638-53.638-53.638s-53.638 24.381-53.638 53.638c0 13.003 4.876 25.194 13.003 34.946-34.946 14.629-52.825 39.822-52.825 73.143 0 14.629 3.251 24.381 10.565 30.883 12.19 10.565 38.197 5.689 47.136 4.063 10.565-1.625 23.568-3.251 35.759-3.251 13.003 0 25.194 1.625 35.759 3.251 19.505 3.251 35.759 5.689 47.136-4.063 7.314-5.689 10.565-16.254 10.565-30.883 0-33.321-17.879-58.515-52.825-73.143zm-40.635-72.331c20.318 0 37.384 17.067 37.384 37.384s-17.067 37.384-37.384 37.384-37.384-17.067-37.384-37.384 17.066-37.384 37.384-37.384zm72.33 163.353c-5.689 4.876-18.692 2.438-34.133 0-11.378-1.625-24.381-4.063-38.197-4.063-13.816 0-26.819 1.625-38.197 4.063-15.441 2.438-28.444 4.063-34.133 0-3.251-2.438-4.876-8.94-4.876-17.879 0-30.07 17.067-49.575 51.2-60.952 7.314 4.064 16.254 6.502 26.006 6.502s18.692-2.438 26.006-6.502c34.133 11.378 51.2 31.695 51.2 60.952 0 8.939-1.625 15.441-4.876 17.879zM292.571 377.286c8.127-9.752 13.003-21.943 13.003-34.946 0-29.257-24.381-53.638-53.638-53.638s-53.638 24.381-53.638 53.638c0 13.003 4.876 25.194 13.003 34.946-34.946 14.629-52.825 39.822-52.825 73.143 0 14.629 3.251 24.381 10.565 30.883 12.19 10.565 38.197 5.689 47.137 4.064 10.565-1.625 23.568-3.251 35.759-3.251 13.003 0 25.194 1.625 35.759 3.251 19.505 3.251 35.759 5.689 47.136-4.064 7.314-5.689 10.565-16.254 10.565-30.883 0-33.321-17.88-58.515-52.826-73.143zm-40.634-72.331c20.317 0 37.384 17.067 37.384 37.384s-17.067 37.384-37.384 37.384-37.384-17.067-37.384-37.384c-.001-20.317 17.066-37.384 37.384-37.384zm72.33 164.166c-5.689 4.876-18.692 2.438-34.133 0-11.378-1.625-24.381-4.064-38.197-4.064-13.816 0-26.819 1.625-38.197 4.064-15.441 2.438-28.444 4.063-34.133 0-3.251-2.438-4.876-8.94-4.876-17.879 0-30.07 17.067-49.575 51.2-60.952 7.314 4.063 16.254 6.502 26.006 6.502 9.752 0 18.692-2.438 26.006-6.502 34.133 11.378 51.2 31.695 51.2 60.952 0 8.939-1.626 14.628-4.876 17.879zM430.73 227.749c-2.438 61.765-38.197 118.654-93.46 148.724l8.127 14.629c60.14-32.508 98.336-95.086 101.587-162.54l-16.254-.813zM252.749 24.574c-32.508 0-65.016 8.127-93.46 23.568l8.127 14.629c25.194-14.629 54.451-21.943 84.521-21.943s59.327 7.314 85.333 21.943l8.127-14.629c-28.445-15.441-60.14-23.568-92.648-23.568zM73.143 227.749l-16.254.813c3.251 71.517 45.511 135.721 109.714 167.416l7.314-15.441c-59.327-28.445-97.523-86.959-100.774-152.788zm170.667-32.508h16.254v16.254H243.81zm32.507 0h16.254v16.254h-16.254zm-65.015 0h16.254v16.254h-16.254z"/></svg>