<svg xmlns="http://www.w3.org/2000/svg" viewBox="0 0 385.38 152.21"><g data-name="Layer 2"><path d="M37.58 124.94H2L3.51 119V35.78L2 30h35.58l2.2 13.19-6.18-1.36H16.7l-1.37 1.37v26.93l1.37 1.37h4.67l5.91-1.5v14.83l-5.91-1.51H16.7l-1.37 1.37v26.93L16.7 113h16.9l6.18-1.37zM83 111.75l-2.2 13.19H45.27l1.51-5.77V35.92L45.27 30h14.84l-1.37 5.91v75.83l1.37 1.37h16.76zm18.86 7.42l1.51 5.77H88.54l1.46-5.77V35.92L88.54 30h14.84l-1.51 5.91zm23.08 0l1.51 5.77h-14.83l1.51-5.77V35.92L111.62 30h13.33l13.19 50 2.06 8.38-.56-8.38V35.92L138.13 30H153l-1.51 5.91v83.25l1.51 5.77h-13.36l-13.19-50-2.06-8.38.55 8.38zm42.17 5.77L161.2 119V35.92l5.91-5.92h23.77l5.91 5.91v12l1.51 5.77h-14.84l1.54-5.81V43.2l-1.37-1.37h-9.07l-1.37 1.37v68.41l1.37 1.37h9.07l1.37-1.37V89.36h-3.3l-2.61-12h19.21l-1.51 5.91V119l-5.91 5.91zM245.14 30l-1.51 5.91V119l-5.91 5.91H214l-6-5.91V35.92L206.53 30h14.84l-1.51 5.91v75.83l1.37 1.37h9.2l1.37-1.37V35.92L230.3 30zm49.45 86.7l2.89 8.24h-14.84l1-4-3.16-18.13-1.65-1.65h-10.3l-1.65 1.51-3 18.27 1 4h-14.94l2.75-8.11 14-81.46-1.23-5.37h16.21l-1.24 5.36zm-25.42-28.44l1.24 1h6.32l1.24-.69-3.3-19.57-1.1-10.58-1.1 10.58zm39.01 36.68l-5.9-5.94V35.92l5.9-5.92H332l5.91 5.91v12l1.51 5.77h-14.89l1.47-5.81V43.2l-1.37-1.37h-9.03l-1.37 1.37v68.41l1.37 1.39h9.07l1.37-1.37V89.36h-3.3l-2.61-12h19.23l-1.51 5.91V119l-5.85 5.94zm75.01 0h-35.58l1.51-5.91V35.78L347.61 30h35.58l2.2 13.19-6.18-1.37h-16.9l-1.37 1.37v26.94l1.37 1.37H367l5.88-1.5v14.83L367 83.32h-4.67l-1.37 1.37v26.93l1.37 1.37h16.9l6.18-1.37zM368.1 1.51L384.63 0v14.84l-16.53-1.51H129.57l-16.93 1.51V0l16.93 1.51zm-278.33 0L95.54 0v14.84l-5.77-1.51H6.52l-5.9 1.51V0l5.9 1.51zm165.69 137.37l16.54-1.51v14.84l-16.53-1.51H16.93L0 152.21v-14.84l16.93 1.51zm122.79 0l5.77-1.51v14.84l-5.77-1.51H295l-5.91 1.51v-14.84l5.91 1.51z" fill="#333" data-name="Layer 1"/></g></svg>