<svg xmlns="http://www.w3.org/2000/svg" viewBox="0 0 488 488"><path d="M213.769 111.58c-5.499 0-9.999 4.501-9.999 10.003v51.216h-10.498v-.9c-3.5-34.911-36.995-63.02-71.79-60.219-5.499.4-9.599 5.302-9.199 10.803.4 5.502 5.299 9.603 10.798 9.203 23.597-1.901 47.193 17.606 50.093 41.213H71.09c-2.8 0-5.499 1.2-7.399 3.301a9.902 9.902 0 0 0-2.5 7.702c1.7 17.005 10.698 33.211 24.596 44.614 12.098 9.803 26.796 15.205 41.294 15.205 2 0 4.099-.1 6.099-.3 27.996-3.001 51.193-24.308 58.092-50.416h12.498v40.513c0 5.502 4.499 10.003 9.999 10.003 5.499 0 9.999-4.501 9.999-10.003V121.884c0-5.802-4.499-10.304-9.999-10.304zm-82.688 111.836c-10.998 1.2-22.897-2.601-32.695-10.503-6.699-5.402-11.798-12.404-14.698-20.006h86.688c-6.2 16.004-21.397 28.608-39.295 30.509zm274.661 105.633l-50.293-99.432a9.99 9.99 0 0 0-8.899-5.502 9.88 9.88 0 0 0-8.899 5.502L286.559 331.35c-2.5 4.902-.5 10.903 4.399 13.404 1.4.7 3 1.1 4.499 1.1 3.699 0 7.199-2.001 8.899-5.502l17.597-35.011h49.393l16.598 32.81c2.5 4.902 8.499 6.902 13.398 4.401 4.9-2.599 6.899-8.601 4.4-13.503zm-73.79-43.814l14.598-29.009 14.698 29.009h-29.296z"/><path d="M486.33 272.631c-4.799-31.31-20.097-60.319-43.094-81.826-43.494-40.613-106.985-49.516-159.377-23.808-7.899-71.023-68.09-126.54-141.08-126.54-38.094 0-73.889 14.705-100.885 41.513C14.898 108.779 0 144.591 0 182.803c0 38.112 14.898 73.924 41.894 100.832 26.896 26.809 62.791 41.513 100.885 41.513 22.097 0 43.094-5.102 61.791-14.205 6.399 58.118 48.093 107.334 105.685 122.539h.1c11.498 2.801 22.997 4.201 34.395 4.201 51.293 0 99.986-27.709 125.482-74.124 15.298-27.507 20.897-59.818 16.098-90.928zm-343.55 32.511c-67.59 0-122.682-54.817-122.682-122.339 0-67.421 55.092-122.339 122.682-122.339 67.29 0 121.982 54.917 121.982 122.339S210.07 305.142 142.78 305.142zm310.055 48.815c-26.796 48.816-83.288 73.523-137.48 60.119-52.492-13.904-89.587-60.619-91.487-114.436 35.195-24.608 58.692-64.721 60.791-110.335 46.493-27.209 105.385-20.907 144.979 16.205 40.794 38.012 50.293 99.032 23.197 148.447zM193.172 425.88v-.1c-.1-.4-.2-.8-.3-1.1v-.1c-.1-.3-.2-.7-.4-1 0-.1-.1-.2-.2-.3-.1-.2-.3-.5-.4-.7-.1-.1-.1-.2-.2-.3l-.6-.9c-.2-.3-.5-.6-.8-.9l-.2-.2c-.2-.2-.5-.4-.7-.6-.1-.1-.2-.1-.3-.2-.2-.2-.5-.3-.7-.5-.1-.1-.2-.1-.3-.2-.3-.2-.7-.4-1-.5l-51.093-20.607c-5.099-2.101-10.898.4-12.998 5.502s.4 10.903 5.499 13.004l34.195 13.804c-18.797 10.103-41.494 10.903-61.191 1.5h-.1c-24.896-11.504-40.594-36.912-39.994-64.921.1-5.502-4.199-10.103-9.799-10.203-5.499-.1-10.099 4.201-10.199 9.803-.9 35.911 19.397 68.622 51.493 83.527 11.998 5.702 24.796 8.503 37.595 8.503 10.898 0 21.797-2.101 32.095-6.102l-9.099 22.207c-2.1 5.102.4 11.004 5.499 13.004 1.2.5 2.5.7 3.799.7 3.899 0 7.699-2.301 9.299-6.202l20.597-50.516c0-.1.1-.2.1-.3-.1-.1-.1-.2 0-.3.1-.3.2-.6.2-.8 0-.1 0-.2.1-.3.1-.4.1-.8.2-1.2v-1.4c0-.3-.1-.6-.1-.9l.002-.203zM295.458 62.265v.1c.1.4.2.8.3 1.1v.1c.1.3.2.7.4 1 0 .1.1.2.2.3.1.2.3.5.4.7.1.1.1.2.2.3l.6.9c.2.3.5.6.8.9l.2.2c.2.2.5.4.7.6.1.1.2.1.3.2.2.2.5.3.7.5.1.1.2.1.3.2.3.2.7.4 1 .5l51.093 20.607c5.099 2.101 10.898-.4 12.998-5.502 2.1-5.102-.4-10.903-5.499-13.004l-34.195-13.804c18.797-10.103 41.494-10.903 61.191-1.5h.1c24.896 11.504 40.594 36.912 39.994 64.921-.1 5.502 4.199 10.103 9.799 10.203h.2c5.399 0 9.899-4.301 9.999-9.803.8-36.011-19.397-68.822-51.593-83.627-22.297-10.603-47.393-11.104-69.59-2.401l9.099-22.207c2.1-5.102-.4-11.003-5.499-13.004-5.099-2.101-10.998.4-12.998 5.502L296.06 56.762c0 .1-.1.2-.1.3s-.1.3-.1.4c-.1.3-.2.6-.2.8 0 .1 0 .2-.1.3-.1.4-.1.8-.2 1.2v1.4c0 .3.1.6.1.9l-.002.203z"/></svg>